# xmcd
#
# Track frame offsets: 
#        150
#        11955
#        23235
#        35864
#        48927
#        55548
#        64971
#        76081
#        87435
#        100041
#
# Disc length: 1460 seconds
#
# Revision: 0
# Processed by: cddbd v1.5.2PL0 Copyright (c) Steve Scherf et al.
# Submitted via: ExactAudioCopy v0.99pb4
#
DISCID=7905b20a
DTITLE=Various Artist - Nashville Graffiti
DYEAR=1997
DGENRE=Classic Country
TTITLE0=Johnny Cash - Ring of Fire
TTITLE1=Billy Grammer - Gotta Travel On
TTITLE2=Johnny Horton - North to Alaska
TTITLE3=Bobby Helms - My Special Angel
TTITLE4=Ersel Hickey - Bluebirds Over the Mountain
TTITLE5=Buzz Clifford - Baby Sittin' Boogie
TTITLE6=Guy Mitchell - Singing the Blues
TTITLE7=Marty Robbins - A White Sport Coat (And a Pink Carnation)
TTITLE8=David Houston - Mountain of Love
TTITLE9=Link Wray - Rawhide
EXTD=
EXTT0=
EXTT1=
EXTT2=
EXTT3=
EXTT4=
EXTT5=
EXTT6=
EXTT7=
EXTT8=
EXTT9=
PLAYORDER=
